<svg viewBox="-768 -347.5 1536 695" width="1536" height="695" style="background-color: rgb(255, 255, 255);" xmlns="http://www.w3.org/2000/svg"><path d="M6.075742436285605,29.337550622961466L3.7251855449697646,29.15665038910117M3.7251855449697646,-44.80834381524258L3.7251855449697646,29.15665038910117M3.7251855449697646,29.15665038910117L-23.313159639268665,43.30084186640666M6.075742436285605,-44.62744358138227L6.075742436285605,29.337550622961466M6.075742436285605,29.337550622961466L-20.962602747952825,43.481742100266956" style="fill:none;stroke:rgb(0,0,0);stroke-width:1;stroke-linecap:round"></path><path d="M6.075742436285606,29.337550622961466L3.725185544969766,29.156650389101166L3.725185544969766,-44.808343815242566z" style="fill:rgb(238,238,238); fill-opacity: 0.45"></path><path d="M67.90103360793378,252.6404530810952L53.23749662998888,251.51193869442812M53.2374966299889,-246.6926139614675L53.23749662998888,251.51193869442812M53.23749662998888,251.51193869442812L47.61312628228397,254.4541369168101M31.63120227510861,30.66224682663992L29.28064538379277,30.481346592779623M29.28064538379277,-41.83866850834579L29.28064538379277,30.481346592779623M29.28064538379277,30.481346592779623L2.8436321308568377,44.31097170443643" style="fill:none;stroke:rgb(0,0,0);stroke-width:1;stroke-linecap:round"></path><path d="M6.075742436285606,-44.62744358138227L6.075742436285606,29.337550622961466L3.725185544969766,-44.808343815242566z" style="fill:rgb(238,238,238); fill-opacity: 0.45"></path><path d="M31.63120227510861,-41.6577682744855L31.63120227510861,30.66224682663992M31.63120227510861,30.66224682663992L5.194189022172678,44.491871938296725M67.9010336079338,-245.56409957480045L67.90103360793378,252.6404530810952M67.90103360793378,252.6404530810952L62.27666326022889,255.58265130347718" style="fill:none;stroke:rgb(0,0,0);stroke-width:1;stroke-linecap:round"></path><path d="M47.61312628228398,254.4541369168101L53.23749662998888,251.51193869442812L67.9010336079338,252.64045308109522z" style="fill:rgb(238,238,238); fill-opacity: 0.45"></path><path d="M6.075742436285605,-44.62744358138227L3.7251855449697646,-44.80834381524258M3.7251855449697646,-44.80834381524258L-23.313159639268665,-30.66415233793708" style="fill:none;stroke:rgb(0,0,0);stroke-width:1;stroke-linecap:round"></path><path d="M31.63120227510861,30.662246826639926L29.280645383792766,30.481346592779623L29.280645383792766,-41.83866850834579z" style="fill:rgb(238,238,238); fill-opacity: 0.45"></path><path d="M6.075742436285605,-44.62744358138227L-20.962602747952825,-30.483252104076783" style="fill:none;stroke:rgb(0,0,0);stroke-width:1;stroke-linecap:round"></path><path d="M62.276663260228894,255.5826513034772L47.61312628228398,254.4541369168101L67.9010336079338,252.64045308109522z" style="fill:rgb(238,238,238); fill-opacity: 0.45"></path><path d="M47.613126282283986,-243.7504157390855L47.61312628228397,254.4541369168101M47.61312628228397,254.4541369168101L62.27666326022889,255.58265130347718" style="fill:none;stroke:rgb(0,0,0);stroke-width:1;stroke-linecap:round"></path><path d="M31.63120227510861,-41.65776827448549L31.63120227510861,30.662246826639926L29.280645383792766,-41.83866850834579zM-23.31315963926866,43.30084186640666L3.725185544969766,29.156650389101166L6.075742436285606,29.337550622961466z" style="fill:rgb(238,238,238); fill-opacity: 0.45"></path><path d="M31.63120227510861,-41.6577682744855L29.28064538379277,-41.83866850834579M29.28064538379277,-41.83866850834579L2.8436321308568377,-28.009043396688984M31.63120227510861,-41.6577682744855L5.194189022172678,-27.828143162828688M62.276663260228894,-242.62190135241846L62.27666326022889,255.58265130347718" style="fill:none;stroke:rgb(0,0,0);stroke-width:1;stroke-linecap:round"></path><path d="M-20.962602747952822,43.481742100266956L6.075742436285606,29.337550622961466L6.075742436285606,-44.62744358138227zM3.725185544969766,-44.808343815242566L3.725185544969766,29.156650389101166L-23.31315963926866,-30.664152337937086zM2.843632130856834,44.31097170443643L29.280645383792766,30.481346592779623L31.63120227510861,30.662246826639926zM-20.962602747952822,-30.483252104076783L6.075742436285606,-44.62744358138227L3.725185544969766,-44.808343815242566zM5.194189022172676,44.491871938296725L31.63120227510861,30.662246826639926L31.63120227510861,-41.65776827448549zM67.9010336079338,252.64045308109522L53.23749662998888,251.51193869442812L53.2374966299889,-246.6926139614675zM29.280645383792766,-41.83866850834579L29.280645383792766,30.481346592779623L2.843632130856834,-28.009043396688984zM-20.962602747952822,43.481742100266956L-23.31315963926866,43.30084186640666L6.075742436285606,29.337550622961466zM5.194189022172676,-27.82814316282868L31.63120227510861,-41.65776827448549L29.280645383792766,-41.83866850834579zM53.23749662998888,251.51193869442812L47.61312628228398,254.4541369168101L47.61312628228399,-243.7504157390855zM62.276663260228894,255.5826513034772L67.9010336079338,252.64045308109522L67.90103360793381,-245.5640995748004zM3.725185544969766,29.156650389101166L-23.31315963926866,43.30084186640666L-23.31315963926866,-30.664152337937086z" style="fill:rgb(238,238,238); fill-opacity: 0.45"></path><path d="M108.42069635005998,94.68025411323727L93.75715937211507,93.55173972657019M93.75715937211507,-82.49558108155081L93.75715937211507,93.55173972657019M93.75715937211507,93.55173972657019L88.13278902441016,96.4939379489522M-13.427919126610519,10.41469637394225L-15.778476017926359,10.233796140081953M-15.778476017926359,2.834791283712557L-15.778476017926359,10.233796140081953M-15.778476017926359,10.233796140081953L-18.483226413413085,11.648694397774996M26.91974256312453,2.071759140618821L39.45604598347568,3.0365603878737417M-14.603197577668613,2.925241290289189L-14.603197577668613,10.32424596290231M-14.603197577668613,10.32424596290231L-17.30794797315534,11.739144220595353M-14.603197577668613,10.32424596290231L10.063724499854013,9.144276509587437" style="fill:none;stroke:rgb(0,0,0);stroke-width:1;stroke-linecap:round"></path><path d="M5.194189022172676,44.491871938296725L2.843632130856834,44.31097170443643L31.63120227510861,30.662246826639926z" style="fill:rgb(238,238,238); fill-opacity: 0.45"></path><path d="M-13.427919126610515,10.41469637394225L-15.778476017926355,10.233796140081951L-15.778476017926355,2.8347912837125566z" style="fill:rgb(153,221,255); fill-opacity: 0.58"></path><path d="M-13.427919126610515,3.015691517572855L-13.427919126610519,10.41469637394225M-13.427919126610519,10.41469637394225L-16.132669522097245,11.829594631635294" style="fill:none;stroke:rgb(0,0,0);stroke-width:1;stroke-linecap:round"></path><path d="M-20.962602747952822,-30.483252104076783L-20.962602747952822,43.481742100266956L6.075742436285606,-44.62744358138227z" style="fill:rgb(238,238,238); fill-opacity: 0.45"></path><path d="M-13.427919126610515,3.015691517572855L-15.778476017926359,2.834791283712557M-15.778476017926359,2.834791283712557L-18.483226413413085,4.2496895414055995" style="fill:none;stroke:rgb(0,0,0);stroke-width:1;stroke-linecap:round"></path><path d="M-13.427919126610515,3.0156915175728547L-13.427919126610515,10.41469637394225L-15.778476017926355,2.8347912837125566z" style="fill:rgb(153,221,255); fill-opacity: 0.58"></path><path d="M-14.603197577668613,2.925241290289189L-17.30794797315534,4.340139547982231M-14.603197577668613,2.925241290289189L10.063724499854013,9.144276509587437M-13.427919126610515,3.015691517572855L-16.132669522097245,4.430589775265897" style="fill:none;stroke:rgb(0,0,0);stroke-width:1;stroke-linecap:round"></path><path d="M-18.483226413413085,11.648694397774998L-15.778476017926355,10.233796140081951L-13.427919126610515,10.41469637394225z" style="fill:rgb(153,221,255); fill-opacity: 0.58"></path><path d="M47.61312628228398,254.4541369168101L62.276663260228894,255.5826513034772L62.2766632602289,-242.6219013524184z" style="fill:rgb(238,238,238); fill-opacity: 0.45"></path><path d="M-14.603197572268439,2.9252414006427054L-14.603197572268439,10.324246257012101L-17.30794796775516,11.739144514705146z" style="fill:rgb(255,187,187); fill-opacity: 0.58"></path><path d="M-15.778476017926355,2.8347912837125566L-15.778476017926355,10.233796140081951L-18.483226413413085,4.2496895414055995zM-16.132669522097245,11.829594631635295L-13.427919126610515,10.41469637394225L-13.427919126610515,3.0156915175728547zM-16.132669522097245,4.430589775265897L-13.427919126610515,3.0156915175728547L-15.778476017926355,2.8347912837125566z" style="fill:rgb(153,221,255); fill-opacity: 0.58"></path><path d="M108.42069635005998,-81.36706669488372L108.42069635005998,94.68025411323727M108.42069635005998,94.68025411323727L102.79632600235507,97.62245233561929" style="fill:none;stroke:rgb(0,0,0);stroke-width:1;stroke-linecap:round"></path><path d="M29.280645383792766,30.481346592779623L2.843632130856834,44.31097170443643L2.843632130856834,-28.009043396688984z" style="fill:rgb(238,238,238); fill-opacity: 0.45"></path><path d="M-15.778476017926355,10.233796140081951L-18.483226413413085,11.648694397774998L-18.483226413413085,4.2496895414055995zM-16.132669522097245,11.829594631635295L-18.483226413413085,11.648694397774998L-13.427919126610515,10.41469637394225z" style="fill:rgb(153,221,255); fill-opacity: 0.58"></path><path d="M-14.603197572268439,10.324246257012101L-14.603197572268439,2.9252414006427054L10.063724329572349,9.144276362316047z" style="fill:rgb(255,187,187); fill-opacity: 0.58"></path><path d="M88.13278902441014,96.4939379489522L93.75715937211505,93.55173972657019L108.42069635005998,94.68025411323727zM-23.31315963926866,-30.664152337937086L-20.962602747952822,-30.483252104076783L3.725185544969766,-44.808343815242566z" style="fill:rgb(238,238,238); fill-opacity: 0.45"></path><path d="M-14.603197572268439,2.9252414006427054L-17.30794796775516,11.739144514705146L-17.30794796775516,4.340139658335748z" style="fill:rgb(255,187,187); fill-opacity: 0.58"></path><path d="M-18.483226413413085,4.2496895414055995L-16.132669522097245,4.430589775265897L-15.778476017926355,2.8347912837125566zM-16.132669522097245,4.430589775265897L-16.132669522097245,11.829594631635295L-13.427919126610515,3.0156915175728547z" style="fill:rgb(153,221,255); fill-opacity: 0.58"></path><path d="M40.780889626090605,-2.6447538193013025L38.13120234086076,-1.25865995660738L48.074754584967096,3.6998612453615z" style="fill:rgb(0,0,0)"></path><path d="M-18.483226413413085,4.2496895414055995L-18.483226413413085,11.648694397774996M-18.483226413413085,11.648694397774996L-16.132669522097245,11.829594631635294" style="fill:none;stroke:rgb(0,0,0);stroke-width:1;stroke-linecap:round"></path><path d="M37.31240385620179,6.063282508073794L39.45604598347569,9.202397768181573L48.074754584967096,3.6998612453615z" style="fill:rgb(0,0,0)"></path><path d="M-17.30794796775516,11.739144514705146L-14.603197572268439,10.324246257012101L10.063724329572349,9.144276362316047z" style="fill:rgb(255,187,187); fill-opacity: 0.58"></path><path d="M-17.30794797315534,11.739144220595353L-17.30794797315534,4.340139547982231M-17.30794797315534,11.739144220595353L10.063724499854013,9.144276509587437M-16.132669522097245,4.430589775265897L-16.132669522097245,11.829594631635294" style="fill:none;stroke:rgb(0,0,0);stroke-width:1;stroke-linecap:round"></path><path d="M-18.483226413413085,11.648694397774998L-16.132669522097245,11.829594631635295L-16.132669522097245,4.430589775265897zM-18.483226413413085,4.2496895414055995L-18.483226413413085,11.648694397774998L-16.132669522097245,4.430589775265897z" style="fill:rgb(153,221,255); fill-opacity: 0.58"></path><path d="M-14.603197572268439,2.9252414006427054L-17.30794796775516,4.340139658335748L10.063724329572349,9.144276362316047z" style="fill:rgb(255,187,187); fill-opacity: 0.58"></path><path d="M-18.483226413413085,4.2496895414055995L-16.132669522097245,4.430589775265897M-17.30794797315534,4.340139547982231L10.063724499854013,9.144276509587437" style="fill:none;stroke:rgb(0,0,0);stroke-width:1;stroke-linecap:round"></path><path d="M38.13120234086076,-1.25865995660738L37.31240385620179,6.063282508073794L48.074754584967096,3.6998612453615z" style="fill:rgb(0,0,0)"></path><path d="M-17.30794796775516,4.340139658335748L-17.30794796775516,11.739144514705146L10.063724329572349,9.144276362316047z" style="fill:rgb(255,187,187); fill-opacity: 0.58"></path><path d="M5.194189022172676,-27.82814316282868L5.194189022172676,44.491871938296725L31.63120227510861,-41.65776827448549zM102.79632600235509,97.62245233561926L88.13278902441014,96.4939379489522L108.42069635005998,94.68025411323727zM108.42069635005998,94.68025411323727L93.75715937211505,93.55173972657019L93.75715937211507,-82.4955810815508z" style="fill:rgb(238,238,238); fill-opacity: 0.45"></path><path d="M-23.313159639268665,-30.66415233793708L-23.313159639268665,43.30084186640666M-23.313159639268665,43.30084186640666L-20.962602747952825,43.481742100266956M88.13278902441017,-79.55338285916879L88.13278902441016,96.4939379489522M88.13278902441016,96.4939379489522L102.79632600235507,97.62245233561929M-20.962602747952825,-30.483252104076783L-20.962602747952825,43.481742100266956" style="fill:none;stroke:rgb(0,0,0);stroke-width:1;stroke-linecap:round"></path><path d="M2.843632130856834,-28.009043396688984L5.194189022172676,-27.82814316282868L29.280645383792766,-41.83866850834579z" style="fill:rgb(238,238,238); fill-opacity: 0.45"></path><path d="M67.43940530525069,5.190176096648204L79.97570872560185,6.154977343903125M102.79632600235507,-78.42486847250173L102.79632600235507,97.62245233561929" style="fill:none;stroke:rgb(0,0,0);stroke-width:1;stroke-linecap:round"></path><path d="M-23.31315963926866,43.30084186640666L-20.962602747952822,43.481742100266956L-20.962602747952822,-30.483252104076783zM93.75715937211505,93.55173972657019L88.13278902441014,96.4939379489522L88.13278902441016,-79.55338285916879zM102.79632600235509,97.62245233561926L108.42069635005998,94.68025411323727L108.42069635005998,-81.36706669488373z" style="fill:rgb(238,238,238); fill-opacity: 0.45"></path><path d="M81.30055236821677,0.4736631367280808L78.65086508298693,1.8597569994220033L88.59441732709325,6.818278201390882z" style="fill:rgb(0,0,0)"></path><path d="M2.8436321308568377,-28.009043396688984L2.8436321308568377,44.31097170443643M2.8436321308568377,44.31097170443643L5.194189022172678,44.491871938296725" style="fill:none;stroke:rgb(0,0,0);stroke-width:1;stroke-linecap:round"></path><path d="M77.83206659832796,9.181699464103177L79.97570872560185,12.320814724210955L88.59441732709325,6.818278201390882z" style="fill:rgb(0,0,0)"></path><path d="M67.90103360793381,-245.5640995748004L67.9010336079338,252.64045308109522L53.2374966299889,-246.6926139614675z" style="fill:rgb(238,238,238); fill-opacity: 0.45"></path><path d="M5.194189022172678,-27.828143162828688L5.194189022172678,44.491871938296725" style="fill:none;stroke:rgb(0,0,0);stroke-width:1;stroke-linecap:round"></path><path d="M53.2374966299889,-246.6926139614675L53.23749662998888,251.51193869442812L47.61312628228399,-243.7504157390855zM-23.31315963926866,-30.664152337937086L-23.31315963926866,43.30084186640666L-20.962602747952822,-30.483252104076783z" style="fill:rgb(238,238,238); fill-opacity: 0.45"></path><path d="M78.65086508298693,1.8597569994220033L77.83206659832796,9.181699464103177L88.59441732709325,6.818278201390882z" style="fill:rgb(0,0,0)"></path><path d="M108.42069635005998,-81.36706669488373L108.42069635005998,94.68025411323727L93.75715937211507,-82.4955810815508zM93.75715937211507,-82.4955810815508L93.75715937211505,93.55173972657019L88.13278902441016,-79.55338285916879zM2.843632130856834,44.31097170443643L5.194189022172676,44.491871938296725L5.194189022172676,-27.82814316282868z" style="fill:rgb(238,238,238); fill-opacity: 0.45"></path><path d="M-23.313159639268665,-30.66415233793708L-20.962602747952825,-30.483252104076783" style="fill:none;stroke:rgb(0,0,0);stroke-width:1;stroke-linecap:round"></path><path d="M88.13278902441014,96.4939379489522L102.79632600235509,97.62245233561926L102.79632600235509,-78.42486847250173zM2.843632130856834,-28.009043396688984L2.843632130856834,44.31097170443643L5.194189022172676,-27.82814316282868zM62.2766632602289,-242.6219013524184L62.276663260228894,255.5826513034772L67.90103360793381,-245.5640995748004zM47.61312628228399,-243.7504157390855L47.61312628228398,254.4541369168101L62.2766632602289,-242.6219013524184z" style="fill:rgb(238,238,238); fill-opacity: 0.45"></path><path d="M108.42069635005998,-81.36706669488372L93.75715937211507,-82.49558108155081M93.75715937211507,-82.49558108155081L88.13278902441017,-79.55338285916879M2.8436321308568377,-28.009043396688984L5.194189022172678,-27.828143162828688" style="fill:none;stroke:rgb(0,0,0);stroke-width:1;stroke-linecap:round"></path><path d="M102.79632600235509,-78.42486847250173L102.79632600235509,97.62245233561926L108.42069635005998,-81.36706669488373zM88.13278902441016,-79.55338285916879L88.13278902441014,96.4939379489522L102.79632600235509,-78.42486847250173z" style="fill:rgb(238,238,238); fill-opacity: 0.45"></path><path d="M108.42069635005998,-81.36706669488372L102.79632600235507,-78.42486847250173" style="fill:none;stroke:rgb(0,0,0);stroke-width:1;stroke-linecap:round"></path><path d="M102.79632600235509,-78.42486847250173L108.42069635005998,-81.36706669488373L93.75715937211507,-82.4955810815508zM88.13278902441016,-79.55338285916879L102.79632600235509,-78.42486847250173L93.75715937211507,-82.4955810815508z" style="fill:rgb(238,238,238); fill-opacity: 0.45"></path><path d="M88.13278902441017,-79.55338285916879L102.79632600235507,-78.42486847250173M67.9010336079338,-245.56409957480045L53.2374966299889,-246.6926139614675M53.2374966299889,-246.6926139614675L47.613126282283986,-243.7504157390855M67.9010336079338,-245.56409957480045L62.276663260228894,-242.62190135241846" style="fill:none;stroke:rgb(0,0,0);stroke-width:1;stroke-linecap:round"></path><path d="M62.2766632602289,-242.6219013524184L67.90103360793381,-245.5640995748004L53.2374966299889,-246.6926139614675zM47.61312628228399,-243.7504157390855L62.2766632602289,-242.6219013524184L53.2374966299889,-246.6926139614675z" style="fill:rgb(238,238,238); fill-opacity: 0.45"></path><path d="M47.613126282283986,-243.7504157390855L62.276663260228894,-242.62190135241846" style="fill:none;stroke:rgb(0,0,0);stroke-width:1;stroke-linecap:round"></path></svg>